# xmcd
#
# Track frame offsets: 
#        150
#        10637
#        24915
#        37935
#        53967
#        69260
#        83020
#        98627
#        111635
#        123485
#        183095
#
# Disc length: 2607 seconds
#
# Revision: 0
# Processed by: cddbd v1.4PL0 Copyright (c) Steve Scherf et al.
# Submitted via: ExactAudioCopy v0.90b3
#
DISCID=7c0a2d0b
DTITLE=Canned Heat - Canned Heat Cookbook
DYEAR=1970
DGENRE=Blues
TTITLE0=Bullfrog Blues
TTITLE1=Rollin' And Tumblin'
TTITLE2=Going Up The Country
TTITLE3=Amphetamine Annie
TTITLE4=Time Was
TTITLE5=Boogie Music
TTITLE6=On The Road Again
TTITLE7=Same All Over
TTITLE8=Sic'Em Pigs
TTITLE9=Fried Hockey Boogie
TTITLE10=Let's Work Together
EXTD=
EXTT0=
EXTT1=
EXTT2=
EXTT3=
EXTT4=
EXTT5=
EXTT6=
EXTT7=
EXTT8=
EXTT9=
EXTT10=
PLAYORDER=
